<?xml version="1.0" standalone="no"?><!DOCTYPE svg PUBLIC "-//W3C//DTD SVG 1.1//EN" "http://www.w3.org/Graphics/SVG/1.1/DTD/svg11.dtd"><svg t="1559399354270" class="icon" style="" viewBox="0 0 1024 1024" version="1.1" xmlns="http://www.w3.org/2000/svg" p-id="2584" xmlns:xlink="http://www.w3.org/1999/xlink" width="64" height="64"><defs><style type="text/css">@font-face { font-family: uc-nexus-iconfont; src: url("chrome-extension://pogijhnlcfmcppgimcaccdkmbedjkmhi/res/font_9qmmi8b8jsxxbt9.woff") format("woff"), url("chrome-extension://pogijhnlcfmcppgimcaccdkmbedjkmhi/res/font_9qmmi8b8jsxxbt9.ttf") format("truetype"); }
</style></defs><path d="M830.4 621.1v40.3c-0.5 2.1-1.4 3.9-1.8 6.1-4.4 21.2-6.6 43.3-13.3 63.6-19 61.1-54.8 111.6-104.9 153.2-38.6 32-82.3 54.9-131.9 66.3-16.4 3.9-33.1 7.1-49.6 8.7-10.3 1-31.2 1-41.6 0-2.2-0.2-92-15.6-131-34.6-73.9-36.4-127.5-90.5-151.8-168.4-5.3-16.5-7.5-34.3-11-51.1v-38.6c1.8-9.6 3.1-19 4.9-28.6 8-41.2 27-77.5 52.2-111.3 23.9-31.6 49.1-62.4 71.2-94.8 24.3-35 36.3-74.5 29.2-117.3-1.3-8.6-2.6-16.9-4-25.6 0.9-0.5 1.8-0.5 2.6-0.5 54.5 54.9 63.2 122.1 55.3 194.8 1.8-2.1 3.5-3.4 4.9-5.2 46.1-60.2 66-126.4 50.8-200.9-9.8-47.1-30.1-90-64.1-125.1-15.5-14.7-33.7-27.2-50-41.1H364c1.4 0.4 2.6 1.3 4 1.8 30.1 2.6 58.5 11.3 85.4 23.8 61.5 28.6 111.6 71 153.1 123 61.5 76.2 101.3 160.6 108.8 258 3.1 37.3-0.9 73.2-11 108.7-4 13.4-9.3 26.4-14.2 40.7 19.9-8.2 34.9-20.8 46.5-36.8 34.9-48.5 44.7-102.2 36.7-161.9 2.6 3 4 3.9 4.9 5.7 20.8 32 36.7 66.3 44.7 103.1 3.1 14.6 4.8 29.4 7.5 44" fill="#595959" p-id="2585"></path><path d="M207.9 99.8s209.3 83.3 80 164.1c-40.3 25.2-24.4-139.6-80-164.1zM724.3 188.9s138 104.8 25.5 138.1c-35.1 10.4 10.6-108.4-25.5-138.1zM587.5 64s57.7 66.9-1.9 71.6c-18.6 1.4 16.8-53 1.9-71.6z" fill="#595959" p-id="2586"></path></svg>